<svg version="1.2" xmlns="http://www.w3.org/2000/svg" viewBox="0 0 195 73" width="195" height="73">
	<title>logo-colored-svg</title>
	<style>
		.s0 { fill: #128f8b } 
		.s1 { fill: #3de0d2 } 
		.s2 { fill: #ffffff } 
	</style>
	<g id="Layer">
		<g id="Layer">
			<g id="Layer">
				<path id="Layer" class="s0" d="m34.8 34.2v7.6h-25.4v17.6h-9v-22.3q0-9.6 1.7-12.6 2.2-4.2 6.4-6 4.1-1.8 11.6-1.8h14.7v7.6h-13.6q-6.3 0.1-8.1 1-3.6 1.5-3.7 6.6v2.3z"/>
			</g>
		</g>
	</g>
	<g id="Layer">
		<g id="Layer">
			<g id="Layer">
				<path id="Layer" class="s0" d="m41.1 16.7h9v24q0.2 4.5 0.4 6 0.4 2.9 2.8 4 2.4 1.1 8.3 1.1h8.7v7.6h-9.7q-6.8 0-9.9-0.8-7-2-8.9-9-0.7-2.6-0.7-8.9z"/>
			</g>
		</g>
	</g>
	<g id="Layer">
		<g id="Layer">
			<g id="Layer">
				<path id="Layer" fill-rule="evenodd" class="s0" d="m94.4 16.4q6.4 0 11.2 2.2 5.7 2.6 8 8.8 1.8 4.8 1.8 11.2 0 6.6-2.2 11.4-2.7 5.7-8.4 8-4.2 1.6-9.7 1.6-7.3 0-12.6-2.7-4.5-2.2-6.8-7-2.4-4.8-2.4-11.7 0-12.2 6.1-17.4 5.1-4.3 15-4.4zm0 7.2q-6.2 0-8.9 4.1-2.2 3.2-2.2 10.3 0 7.5 2.7 11 2.7 3.5 8.5 3.5 5.6 0 8.3-3.5 2.6-3.6 2.6-10.9 0-6.8-2.1-10.3-2.5-4.1-8.9-4.2z"/>
			</g>
		</g>
	</g>
	<rect id="Layer" class="s1" x="123.8" y="1.8" width="69.6" height="69.6" rx="22.3"></rect>
	<path id="Layer" fill-rule="evenodd" class="s2" d="m173.9 72.6h-30.6c-11.4 0-20.7-9.3-20.7-20.7v-30.6c0-11.4 9.3-20.7 20.7-20.7h30.6c11.4 0 20.7 9.3 20.7 20.7v30.6c0 11.4-9.3 20.7-20.7 20.7zm-30.6-69.6c-10 0-18.2 8.2-18.2 18.3v30.6c0 10 8.2 18.2 18.2 18.2h30.6c10.1 0 18.3-8.2 18.3-18.2v-30.6c0-10.1-8.2-18.3-18.3-18.3z"/>
	<g id="Layer">
		<g id="Layer">
			<g id="Layer">
				<path id="Layer" class="s2" d="m134.6 56v-37.4h7.9v37.4z"/>
			</g>
		</g>
	</g>
	<g id="Layer">
		<g id="Layer">
			<g id="Layer">
				<path id="Layer" fill-rule="evenodd" class="s2" d="m150.1 18.6h15.8q6 0 9.2 1.2 6 2.2 8 8 1.5 4.5 1.5 9.6 0 5.1-1.4 9.5-1.5 4.6-4.8 6.8-2.2 1.4-4.7 1.8-2.6 0.5-7.8 0.5h-15.8zm7.9 6.7v24h7.9q5.2 0 7.2-2.3 1.3-1.5 2-4.1 0.8-2.6 0.8-5.6 0-3.3-0.9-6-0.9-2.8-2.4-4.1-2.1-1.9-6.7-1.9z"/>
			</g>
		</g>
	</g>
</svg>