<svg xmlns="http://www.w3.org/2000/svg" xmlns:xlink="http://www.w3.org/1999/xlink" width="500" zoomAndPan="magnify" viewBox="0 0 375 374.999991" height="500" preserveAspectRatio="xMidYMid meet" version="1.0"><defs><g/></defs><g fill="#128f8b" fill-opacity="1"><g transform="translate(88.514024, 210.374986)"><g><path d="M 38.328125 -25.21875 L 38.328125 -17.59375 L 12.859375 -17.59375 L 12.859375 0 L 3.84375 0 L 3.84375 -22.265625 C 3.882812 -28.671875 4.476562 -32.875 5.625 -34.875 C 7.082031 -37.695312 9.1875 -39.703125 11.9375 -40.890625 C 14.6875 -42.085938 18.554688 -42.6875 23.546875 -42.6875 L 38.328125 -42.6875 L 38.328125 -35.078125 L 24.703125 -35.078125 C 20.484375 -34.984375 17.773438 -34.640625 16.578125 -34.046875 C 14.179688 -33.066406 12.941406 -30.890625 12.859375 -27.515625 L 12.859375 -25.21875 Z M 38.328125 -25.21875 "/></g></g></g><g fill="#128f8b" fill-opacity="1"><g transform="translate(129.215529, 210.374986)"><g><path d="M 3.84375 -42.6875 L 12.859375 -42.6875 L 12.859375 -18.6875 C 12.992188 -15.65625 13.125 -13.648438 13.25 -12.671875 C 13.550781 -10.710938 14.488281 -9.378906 16.0625 -8.671875 C 17.644531 -7.960938 20.421875 -7.609375 24.390625 -7.609375 L 33.09375 -7.609375 L 33.09375 0 L 23.421875 0 C 18.859375 0 15.550781 -0.253906 13.5 -0.765625 C 8.8125 -2.128906 5.828125 -5.117188 4.546875 -9.734375 C 4.078125 -11.523438 3.84375 -14.507812 3.84375 -18.6875 Z M 3.84375 -42.6875 "/></g></g></g><g fill="#128f8b" fill-opacity="1"><g transform="translate(163.261437, 210.374986)"><g><path d="M 23.109375 -42.9375 C 27.367188 -42.9375 31.125 -42.210938 34.375 -40.765625 C 38.164062 -39.015625 40.832031 -36.09375 42.375 -32 C 43.5625 -28.800781 44.15625 -25.046875 44.15625 -20.734375 C 44.15625 -16.378906 43.429688 -12.601562 41.984375 -9.40625 C 40.148438 -5.613281 37.332031 -2.945312 33.53125 -1.40625 C 30.71875 -0.300781 27.476562 0.25 23.8125 0.25 C 18.988281 0.25 14.804688 -0.644531 11.265625 -2.4375 C 8.273438 -3.925781 5.988281 -6.269531 4.40625 -9.46875 C 2.832031 -12.664062 2.046875 -16.550781 2.046875 -21.125 C 2.046875 -29.269531 4.070312 -35.070312 8.125 -38.53125 C 11.539062 -41.425781 16.535156 -42.894531 23.109375 -42.9375 Z M 23.171875 -35.78125 C 18.984375 -35.78125 15.992188 -34.414062 14.203125 -31.6875 C 12.753906 -29.550781 12.03125 -26.113281 12.03125 -21.375 C 12.03125 -16.382812 12.925781 -12.71875 14.71875 -10.375 C 16.507812 -8.0625 19.347656 -6.90625 23.234375 -6.90625 C 26.984375 -6.90625 29.742188 -8.078125 31.515625 -10.421875 C 33.285156 -12.773438 34.171875 -16.40625 34.171875 -21.3125 C 34.171875 -25.789062 33.445312 -29.203125 32 -31.546875 C 30.332031 -34.328125 27.390625 -35.738281 23.171875 -35.78125 Z M 23.171875 -35.78125 "/></g></g></g><path fill="#3de0d2" d="M 263.105469 222.335938 L 238.121094 222.335938 C 225.800781 222.335938 215.835938 212.34375 215.835938 200.046875 L 215.835938 175.066406 C 215.835938 162.742188 225.828125 152.777344 238.121094 152.777344 L 263.105469 152.777344 C 275.425781 152.777344 285.390625 162.769531 285.390625 175.066406 L 285.390625 200.046875 C 285.390625 212.371094 275.425781 222.335938 263.105469 222.335938 " fill-opacity="1" fill-rule="nonzero"/><path fill="#ffffff" d="M 265.910156 223.570312 L 235.34375 223.570312 C 223.917969 223.570312 214.628906 214.277344 214.628906 202.855469 L 214.628906 172.285156 C 214.628906 160.863281 223.917969 151.570312 235.34375 151.570312 L 265.910156 151.570312 C 277.335938 151.570312 286.628906 160.863281 286.628906 172.285156 L 286.628906 202.855469 C 286.628906 214.277344 277.335938 223.570312 265.910156 223.570312 M 235.34375 154.011719 C 225.265625 154.011719 217.070312 162.210938 217.070312 172.285156 L 217.070312 202.855469 C 217.070312 212.933594 225.265625 221.128906 235.34375 221.128906 L 265.910156 221.128906 C 275.988281 221.128906 284.183594 212.933594 284.183594 202.855469 L 284.183594 172.285156 C 284.183594 162.210938 275.988281 154.011719 265.910156 154.011719 L 235.34375 154.011719 " fill-opacity="1" fill-rule="nonzero"/><g fill="#ffffff" fill-opacity="1"><g transform="translate(222.750811, 206.999986)"><g><path d="M 3.8125 0 L 3.8125 -37.359375 L 11.765625 -37.359375 L 11.765625 0 Z M 3.8125 0 "/></g></g></g><g fill="#ffffff" fill-opacity="1"><g transform="translate(238.260644, 206.999986)"><g><path d="M 3.8125 -37.359375 L 19.65625 -37.359375 C 23.613281 -37.359375 26.675781 -36.960938 28.84375 -36.171875 C 32.832031 -34.710938 35.5 -32.046875 36.84375 -28.171875 C 37.851562 -25.179688 38.359375 -21.988281 38.359375 -18.59375 C 38.359375 -15.226562 37.875 -12.054688 36.90625 -9.078125 C 35.9375 -6.015625 34.332031 -3.753906 32.09375 -2.296875 C 30.664062 -1.398438 29.101562 -0.789062 27.40625 -0.46875 C 25.707031 -0.15625 23.125 0 19.65625 0 L 3.8125 0 Z M 11.765625 -30.6875 L 11.765625 -6.65625 L 19.65625 -6.65625 C 23.125 -6.65625 25.53125 -7.421875 26.875 -8.953125 C 27.695312 -9.929688 28.359375 -11.296875 28.859375 -13.046875 C 29.367188 -14.804688 29.625 -16.671875 29.625 -18.640625 C 29.625 -20.847656 29.320312 -22.863281 28.71875 -24.6875 C 28.125 -26.519531 27.34375 -27.882812 26.375 -28.78125 C 24.957031 -30.050781 22.71875 -30.6875 19.65625 -30.6875 Z M 11.765625 -30.6875 "/></g></g></g></svg>